<?xml version="1.0" encoding="UTF-8" standalone="no"?>
<!DOCTYPE svg PUBLIC "-//W3C//DTD SVG 1.1//EN" "http://www.w3.org/Graphics/SVG/1.1/DTD/svg11.dtd">
<!-- Created with Vectornator (http://vectornator.io/) -->
<svg height="800.0pt" stroke-miterlimit="10" style="fill-rule:nonzero;clip-rule:evenodd;stroke-linecap:round;stroke-linejoin:round;" version="1.1" viewBox="0 0 1200 800" width="1200.0pt" xml:space="preserve" xmlns="http://www.w3.org/2000/svg" xmlns:xlink="http://www.w3.org/1999/xlink">
<defs/>
<g id="Ebene-1">
<g opacity="1">
<path d="M884.35 214.304C1007.4 214.304 1094.13 306.258 1060.39 428.949C1052.23 458.637 1033.06 486.637 1009.43 506.16C928.147 573.308 821.787 541.413 723.751 547.854C716.765 548.313 712.505 556.199 706.765 560.208C680.075 578.848 653.174 597.185 626.466 615.799C607.957 628.699 589.401 641.53 570.874 654.405C548.599 669.884 529.861 695.955 502.929 699.187C470.861 703.035 469.353 691.93 442.704 709.996C415.644 728.342 393.226 759.42 360.861 764.044C336.227 767.563 316.89 756.366 294.46 748.602C271.848 740.774 249.127 733.266 226.515 725.438C212.532 720.598 134.569 700.582 133.862 682.2C132.932 658.026 130.807 633.621 133.862 609.622C134.553 604.194 140.334 600.605 144.671 597.269C160.515 585.081 177.711 574.759 194.086 563.296C227.095 540.19 239.621 544.318 241.957 504.616C171.061 497.526 132.469 416.455 170.923 356.371C194.756 319.132 229.105 313.133 269.753 313.133C273.734 249.429 313.595 202.304 376.303 188.052C395.604 183.665 414.326 187.348 433.439 189.596C435.995 189.897 439.638 191.672 441.16 189.596C451.643 175.301 454.975 156.787 464.323 141.726C486.971 105.237 519.898 75.5201 558.521 56.7938C663.288 5.99759 797.041 48.714 856.554 147.902C864.745 161.554 884.35 195.667 884.35 214.304Z" fill="#9342bb" fill-rule="nonzero" opacity="1" stroke="none"/>
<path d="M590.949 271.44C623.515 271.44 647.705 277.161 678.969 285.337C703.125 291.655 727.427 297.413 751.547 303.868C779.251 311.282 815.982 319.338 816.404 354.827C816.87 393.944 818.675 433.133 816.404 472.187C816.07 477.933 812.179 483.058 808.683 487.629C796.169 503.994 769.359 516.502 753.091 527.779C716.008 553.484 678.913 579.172 641.908 604.99C599.236 634.761 557.168 665.93 513.738 694.554C510.465 696.711 506.821 698.72 502.929 699.187C489.12 700.844 474.429 693.245 461.235 697.643C424.532 709.877 399.848 758.474 360.861 764.044C336.227 767.563 316.89 756.366 294.46 748.602C256.889 735.596 219.297 722.95 181.732 709.996C167.155 704.97 145.927 703.387 136.95 689.921C135.413 687.615 133.968 684.97 133.862 682.2C132.932 658.026 130.807 633.621 133.862 609.622C134.553 604.194 140.334 600.605 144.671 597.269C160.515 585.081 177.711 574.759 194.086 563.296C203.449 556.742 212.519 549.775 221.882 543.221C228.681 538.461 235.201 530.867 243.501 530.867C243.501 517.999 241.452 504.966 243.501 492.262C245.845 477.728 266.585 473.895 279.018 466.01C290.954 458.441 302.61 450.436 314.535 442.847C352.005 419.003 389.705 395.52 427.262 371.813C467.358 346.505 507.594 321.421 547.711 296.147C559.068 288.992 570.36 281.734 590.949 271.44Z" fill="#2c363e" fill-rule="nonzero" opacity="1" stroke="none"/>
<path d="M757.724 306.956C754.636 306.956 754.636 306.956 751.547 306.956C751.547 308.501 751.547 308.501 751.547 310.045C767.07 313.149 835.46 334.941 797.874 362.548C742.606 403.143 686.596 442.717 631.099 482.997C607.84 499.878 584.761 516.946 561.609 533.956C543.188 547.49 514.627 552.931 506.017 574.105C493.414 605.103 506.438 641.075 504.473 674.479C504.029 682.035 496.43 678.259 493.664 677.568C492.634 645.654 493.382 613.633 490.575 581.827C489.16 565.789 459.512 555.031 448.881 550.942C436.116 546.033 423.281 541.279 410.276 537.044C364.824 522.246 313.381 515.982 269.753 496.895C265.416 494.997 268.912 487.062 269.753 484.541C271.297 484.541 271.297 484.541 272.841 484.541C272.069 480.681 272.069 480.681 271.297 476.82C259.158 484.912 265.351 481.337 252.766 487.629C251.222 486.085 251.222 486.085 249.678 484.541C348.34 420.701 448.232 358.819 547.711 296.147C561.756 287.299 574.395 272.666 590.949 271.44C642.696 267.606 703.463 290.668 751.547 303.868C753.767 304.477 755.665 305.927 757.724 306.956Z" fill="#3b464e" fill-rule="nonzero" opacity="1" stroke="none"/>
<path d="M345.419 747.057C345.419 712.313 345.419 712.313 345.419 677.568C290.185 666.521 230.028 642.418 177.1 625.065C171.375 623.187 164.742 622.745 160.113 618.888C153.628 613.483 168.57 603.553 175.556 598.813C184.419 592.799 193.091 586.508 201.807 580.282C217.643 568.971 267.002 522.115 286.739 527.779C342.47 543.772 398.087 560.177 453.514 577.194C456.815 578.207 460.017 579.755 462.779 581.827C474.375 590.524 467.138 610.572 467.412 625.065C467.684 639.475 476.996 657.538 467.412 668.302C440.351 698.694 400.545 714.7 367.038 737.792C351.523 748.485 358.466 747.057 345.419 747.057Z" fill="#fcce66" fill-rule="nonzero" opacity="1" stroke="none"/>
<path d="M648.085 364.092C647.766 367.281 645.154 396.808 643.452 398.065C634.517 404.67 620.398 399.821 611.024 405.786C578.851 426.26 575.551 487.629 532.269 487.629C532.269 465.64 544.758 445.46 550.799 424.317C556.905 402.946 530.7 401.524 519.915 413.507C506.019 428.948 519.679 464.103 515.283 486.085C480.127 486.085 482.854 442.964 482.854 415.051C454.421 431.777 439.332 439.759 407.188 439.759C407.188 437.7 405.58 434.868 407.188 433.582C431.952 413.771 458.455 396.231 484.398 377.99C530.899 345.295 594.786 361.775 648.085 364.092Z" fill="#fafafb" fill-rule="nonzero" opacity="1" stroke="none"/>
<path d="M157.025 611.167C158.054 613.226 157.973 616.495 160.113 617.343C185.839 627.537 212.574 634.974 238.868 643.595C274.269 655.202 309.818 666.614 345.419 677.568C345.419 711.54 345.419 711.54 345.419 745.513C305.76 740.556 262.16 719.692 224.97 706.908C206.742 700.642 175.449 693.665 157.025 683.745C154.759 682.524 152.564 680.136 152.392 677.568C150.988 656.51 150.923 635.308 152.392 614.255C152.521 612.404 155.481 612.196 157.025 611.167Z" fill="#37424b" fill-rule="nonzero" opacity="1" stroke="none"/>
<path d="M464.323 586.459C465.353 599.328 466.925 612.164 467.412 625.065C467.955 639.467 476.996 657.538 467.412 668.302C440.351 698.694 400.68 714.897 367.038 737.792C363.607 740.127 359.832 741.91 356.229 743.969C356.229 720.291 349.569 695.657 356.229 672.935C359.241 662.657 373.764 660.63 382.48 654.405C403.49 639.398 460.632 612.301 464.323 586.459Z" fill="#edad3b" fill-rule="nonzero" opacity="1" stroke="none"/>
<path d="M629.554 109.297C672.242 106.837 708.216 112.155 745.37 135.549C757.925 143.454 801.047 180.744 771.622 183.419C745.928 185.755 711.066 143.772 675.881 140.181C646.127 137.145 616.423 139.026 589.405 152.535C577.72 158.378 550.831 191.274 533.813 183.419C509.146 172.035 543.446 147.02 550.799 141.726C574.509 124.655 600.394 110.978 629.554 109.297Z" fill="#fbf9fc" fill-rule="nonzero" opacity="1" stroke="none"/>
<path d="M277.474 527.779C262.862 557.002 201.33 590.962 172.467 611.167C208.78 625.133 246.454 635.277 283.65 646.683C287.801 647.956 344.163 667.836 348.507 665.214C376.019 648.612 401.088 628.262 427.262 609.622C443.266 598.226 453.846 596.819 456.602 580.282C459.691 581.054 459.691 581.054 462.779 581.827C465.466 608.697 439.942 615.417 419.541 629.697C401.992 641.982 384.588 654.474 367.038 666.758C363.997 668.887 358.277 669.258 357.773 672.935C354.482 696.909 356.743 721.32 356.229 745.513C350.824 746.285 350.824 746.285 345.419 747.057C345.419 712.313 345.419 712.313 345.419 677.568C290.185 666.521 230.028 642.418 177.1 625.065C171.375 623.187 164.742 622.745 160.113 618.888C153.628 613.483 168.57 603.553 175.556 598.813C184.419 592.799 193.091 586.508 201.807 580.282C212.815 572.42 266.528 527.779 277.474 527.779Z" fill="#f8e3a7" fill-rule="nonzero" opacity="1" stroke="none"/>
<path d="M640.364 164.889C668.21 162.707 696.095 168.966 719.119 186.508C726.095 191.823 750.685 211.903 728.384 220.481C717.197 224.783 679.996 196.673 660.439 194.229C630.368 190.47 590.549 225.285 578.595 222.025C557.573 216.291 575.185 194.267 583.228 188.052C600.634 174.602 618.936 166.567 640.364 164.889Z" fill="#faf8fc" fill-rule="nonzero" opacity="1" stroke="none"/>
<path d="M604.847 302.324C645.058 302.324 699.291 314.801 736.105 333.208C727.609 375.691 668.727 345.704 643.452 339.385C615.589 332.419 570.115 335.512 604.847 302.324Z" fill="#bcd754" fill-rule="nonzero" opacity="1" stroke="none"/>
<path d="M157.025 611.167C165.555 628.226 160.113 649.229 160.113 668.302C222.334 686.969 283.506 708.827 345.419 728.527C345.419 737.02 345.419 737.02 345.419 745.513C305.76 740.556 262.16 719.692 224.97 706.908C206.742 700.642 175.449 693.665 157.025 683.745C154.759 682.524 152.564 680.136 152.392 677.568C150.988 656.51 150.923 635.308 152.392 614.255C152.521 612.404 155.481 612.196 157.025 611.167Z" fill="#616b75" fill-rule="nonzero" opacity="1" stroke="none"/>
<path d="M271.297 486.085C310.79 476.852 375.588 512.832 414.909 524.691C439.802 532.198 473.92 541.625 493.664 560.208C511.061 576.582 495.158 585.755 490.575 581.827C483.109 575.427 478.901 565.321 470.5 560.208C426.861 533.644 366.389 524.339 317.623 510.793C300.761 506.109 254.255 490.069 271.297 486.085Z" fill="#636e78" fill-rule="nonzero" opacity="1" stroke="none"/>
<path d="M637.275 218.936C645.924 217.606 654.864 217.699 663.527 218.936C670.349 219.911 716.206 243.695 688.234 254.453C673.086 260.28 672.275 248.212 660.439 246.732C654.487 245.988 594.346 265.109 611.024 235.923C613.739 231.172 618.784 228.086 623.378 225.113C627.634 222.359 632.265 219.707 637.275 218.936Z" fill="#fbf9fc" fill-rule="nonzero" opacity="1" stroke="none"/>
<path d="M385.569 604.99C377.823 635.971 345.137 618.794 326.888 612.711C333.893 584.694 368.867 596.639 385.569 604.99Z" fill="#212425" fill-rule="nonzero" opacity="1" stroke="none"/>
<path d="M297.548 575.65C283.686 603.375 261.403 591.957 238.868 584.915C238.868 575.424 251.618 569.763 260.487 566.384C272.387 561.851 285.332 572.057 297.548 575.65Z" fill="#232526" fill-rule="nonzero" opacity="1" stroke="none"/>
<path d="M513.738 495.351C525.075 490.511 547.295 514.371 524.548 520.058C506.135 524.661 501.798 500.447 513.738 495.351Z" fill="#f3f4f4" fill-rule="nonzero" opacity="1" stroke="none"/>
</g>
</g>
</svg>
